<svg width="30" height="27" viewBox="0 0 30 27" fill="none" xmlns="http://www.w3.org/2000/svg">
<path fill-rule="evenodd" clip-rule="evenodd" d="M10.8333 7.25H19.1667C19.7192 7.25 20.2491 7.46949 20.6398 7.86019C21.0305 8.2509 21.25 8.7808 21.25 9.33333V17.6667C21.25 18.2192 21.0305 18.7491 20.6398 19.1398C20.2491 19.5305 19.7192 19.75 19.1667 19.75H10.8333C10.2808 19.75 9.7509 19.5305 9.36019 19.1398C8.96949 18.7491 8.75 18.2192 8.75 17.6667V9.33333C8.75 8.7808 8.96949 8.2509 9.36019 7.86019C9.7509 7.46949 10.2808 7.25 10.8333 7.25ZM10.8333 8.5C10.6123 8.5 10.4004 8.5878 10.2441 8.74408C10.0878 8.90036 10 9.11232 10 9.33333V17.6667C10 17.8877 10.0878 18.0996 10.2441 18.2559C10.4004 18.4122 10.6123 18.5 10.8333 18.5H19.1667C19.3877 18.5 19.5996 18.4122 19.7559 18.2559C19.9122 18.0996 20 17.8877 20 17.6667V9.33333C20 9.11232 19.9122 8.90036 19.7559 8.74408C19.5996 8.5878 19.3877 8.5 19.1667 8.5H10.8333Z" fill="#23251D"/>
</svg>
